<?xml version="1.0" encoding="UTF-8" standalone="no"?><!DOCTYPE svg PUBLIC "-//W3C//DTD SVG 1.1//EN" "http://www.w3.org/Graphics/SVG/1.1/DTD/svg11.dtd"><svg width="100%" height="100%" viewBox="0 0 100 71" version="1.1" xmlns="http://www.w3.org/2000/svg" xmlns:xlink="http://www.w3.org/1999/xlink" xml:space="preserve" xmlns:serif="http://www.serif.com/" style="fill-rule:evenodd;clip-rule:evenodd;stroke-linejoin:round;stroke-miterlimit:2;"><path d="M0,63.122l10.024,-9.281l80.193,0l8.845,9.281l-99.062,-0Z" style="fill:#095483;fill-rule:nonzero;"/><path d="M88.964,54.899l-78.865,-0c-1.302,-0 -2.357,-1.091 -2.357,-2.436l0,-49.373c0,-1.346 1.055,-2.436 2.357,-2.436l78.865,-0c1.301,-0 2.357,1.09 2.357,2.436l-0,49.373c-0,1.345 -1.056,2.436 -2.357,2.436Z" style="fill:#092b3d;fill-rule:nonzero;"/><path d="M85.903,52.863l-72.744,0c-1.201,0 -2.174,-0.974 -2.174,-2.174l0,-44.056c0,-1.201 0.973,-2.174 2.174,-2.174l72.744,-0c1.201,-0 2.174,0.973 2.174,2.174l-0,44.056c-0,1.2 -0.973,2.174 -2.174,2.174Z" style="fill:#4495ca;fill-rule:nonzero;"/><path d="M89.014,5.609c-0.322,-0.788 -1.089,-1.303 -1.94,-1.303l-74.843,-0c-1.014,-0 -1.927,0.613 -2.31,1.551l-5.458,13.362l90.11,-0l-5.559,-13.61Z" style="fill:#fdd26c;fill-rule:nonzero;"/><path d="M7.354,24.05l-0.058,-0c-1.564,-0 -2.833,-1.269 -2.833,-2.833l-0,-1.998l5.724,-0l-0,1.998c-0,1.564 -1.269,2.833 -2.833,2.833Z" style="fill:#f0c02f;fill-rule:nonzero;"/><path d="M19.276,24.05l-0.062,-0c-1.709,-0 -3.093,-1.269 -3.093,-2.833l0,-1.998l6.249,-0l-0,1.998c-0,1.564 -1.385,2.833 -3.094,2.833Z" style="fill:#f0c02f;fill-rule:nonzero;"/><path d="M31.25,24.05l-0.065,-0c-1.78,-0 -3.223,-1.269 -3.223,-2.833l0,-1.998l6.511,-0l-0,1.998c-0,1.564 -1.443,2.833 -3.223,2.833Z" style="fill:#f0c02f;fill-rule:nonzero;"/><path d="M43.407,24.05l-0.066,-0c-1.809,-0 -3.275,-1.269 -3.275,-2.833l-0,-1.998l6.616,-0l-0,1.998c-0,1.564 -1.466,2.833 -3.275,2.833Z" style="fill:#f0c02f;fill-rule:nonzero;"/><path d="M55.602,24.05l-0.064,-0c-1.773,-0 -3.211,-1.269 -3.211,-2.833l-0,-1.998l6.485,-0l-0,1.998c-0,1.564 -1.437,2.833 -3.21,2.833Z" style="fill:#f0c02f;fill-rule:nonzero;"/><path d="M67.601,24.05l-0.065,-0c-1.773,-0 -3.21,-1.269 -3.21,-2.833l0,-1.998l6.485,-0l0,1.998c0,1.564 -1.437,2.833 -3.21,2.833Z" style="fill:#f0c02f;fill-rule:nonzero;"/><path d="M79.744,24.05l-0.064,-0c-1.737,-0 -3.145,-1.269 -3.145,-2.833l0,-1.998l6.354,-0l-0,1.998c-0,1.564 -1.408,2.833 -3.145,2.833Z" style="fill:#f0c02f;fill-rule:nonzero;"/><path d="M91.688,24.05l-0.059,-0c-1.608,-0 -2.911,-1.269 -2.911,-2.833l0,-1.998l5.881,-0l-0,1.998c-0,1.564 -1.303,2.833 -2.911,2.833Z" style="fill:#f0c02f;fill-rule:nonzero;"/><path d="M13.183,24.05l-0.059,-0c-1.622,-0 -2.937,-1.269 -2.937,-2.833l-0,-1.998l5.934,-0l0,1.998c0,1.564 -1.315,2.833 -2.938,2.833Z" style="fill:#f6f0ea;fill-rule:nonzero;"/><path d="M25.194,24.05l-0.056,-0c-1.529,-0 -2.768,-1.269 -2.768,-2.833l-0,-1.998l5.592,-0l0,1.998c0,1.564 -1.239,2.833 -2.768,2.833Z" style="fill:#f6f0ea;fill-rule:nonzero;"/><path d="M37.311,24.05l-0.056,-0c-1.544,-0 -2.795,-1.269 -2.795,-2.833l-0,-1.998l5.645,-0l-0,1.998c-0,1.564 -1.251,2.833 -2.794,2.833Z" style="fill:#f6f0ea;fill-rule:nonzero;"/><path d="M49.546,24.05l-0.056,-0c-1.544,-0 -2.795,-1.269 -2.795,-2.833l-0,-1.998l5.645,-0l-0,1.998c-0,1.564 -1.251,2.833 -2.794,2.833Z" style="fill:#f6f0ea;fill-rule:nonzero;"/><path d="M61.584,24.05l-0.055,-0c-1.508,-0 -2.73,-1.269 -2.73,-2.833l-0,-1.998l5.514,-0l0,1.998c0,1.564 -1.222,2.833 -2.729,2.833Z" style="fill:#f6f0ea;fill-rule:nonzero;"/><path d="M73.715,24.05l-0.058,-0c-1.579,-0 -2.859,-1.269 -2.859,-2.833l0,-1.998l5.777,-0l-0,1.998c-0,1.564 -1.281,2.833 -2.86,2.833Z" style="fill:#f6f0ea;fill-rule:nonzero;"/><path d="M85.846,24.05l-0.059,-0c-1.608,-0 -2.911,-1.269 -2.911,-2.833l-0,-1.998l5.881,-0l0,1.998c0,1.564 -1.303,2.833 -2.911,2.833Z" style="fill:#f6f0ea;fill-rule:nonzero;"/><g><clipPath id="_clip1"><path d="M89.24,6.162c-0.459,-1.123 -1.551,-1.856 -2.763,-1.856l-75.923,-0l-6.091,14.913l90.11,-0l-5.333,-13.057Z"/></clipPath><g clip-path="url(#_clip1)"><rect x="46.682" y="2.415" width="5.672" height="24.155" style="fill:#fff;fill-rule:nonzero;"/><path d="M39.3,25.804l-5.611,-0.823l3.279,-23.826l5.303,0.577l-2.971,24.072Z" style="fill:#fff;fill-rule:nonzero;"/><path d="M26.711,24.796l-5.492,-1.413l6.454,-23.383l4.464,1.417l-5.426,23.379Z" style="fill:#fff;fill-rule:nonzero;"/><path d="M59.644,25.804l5.611,-0.823l-3.922,-23.931l-4.778,0.787l3.089,23.967Z" style="fill:#fff;fill-rule:nonzero;"/><path d="M84.738,24.708l5.325,-1.952l-8.314,-22.679l-4.82,1.813l7.809,22.818Z" style="fill:#fff;fill-rule:nonzero;"/><path d="M14.24,24.708l-5.325,-1.952l8.314,-22.679l4.82,1.813l-7.809,22.818Z" style="fill:#fff;fill-rule:nonzero;"/><path d="M72.232,24.796l5.493,-1.413l-6.467,-23.278l-5.041,1.296l6.015,23.395Z" style="fill:#fff;fill-rule:nonzero;"/></g></g><path d="M50.416,2.247c0,0.488 -0.396,0.884 -0.885,0.884c-0.488,-0 -0.884,-0.396 -0.884,-0.884c0,-0.489 0.396,-0.885 0.884,-0.885c0.489,-0 0.885,0.396 0.885,0.885Z" style="fill:#095483;fill-rule:nonzero;"/><path d="M44.972,45.651l8.977,0c1.104,0 2.002,-0.898 2.002,-2.002l0,-0.03c0,-1.104 -0.898,-2.002 -2.002,-2.002l-8.977,0c-0.289,0 -0.524,0.234 -0.524,0.523c-0,0.289 0.235,0.524 0.524,0.524l8.977,0c0.527,0 0.955,0.428 0.955,0.955l-0,0.03c-0,0.527 -0.428,0.955 -0.955,0.955l-8.977,0c-0.289,0 -0.524,0.235 -0.524,0.524c-0,0.289 0.235,0.523 0.524,0.523Z" style="fill:#fff;fill-rule:nonzero;"/><path d="M54.864,42.655c0.168,-0 0.324,-0.11 0.375,-0.28l2.742,-9.069l-15.304,-0l1.732,9.03c0.041,0.213 0.246,0.353 0.459,0.311c0.213,-0.04 0.353,-0.246 0.312,-0.459l-1.553,-8.097l13.297,0l-2.436,8.057c-0.063,0.208 0.054,0.427 0.262,0.49l0.114,0.017Z" style="fill:#fff;fill-rule:nonzero;"/><path d="M57.452,34.091c0.162,0 0.313,-0.1 0.37,-0.261l0.876,-2.456l1.981,-0c0.217,-0 0.392,-0.176 0.392,-0.393c-0,-0.217 -0.175,-0.393 -0.392,-0.393l-2.534,-0l-1.062,2.978c-0.073,0.205 0.033,0.429 0.238,0.502l0.131,0.023Z" style="fill:#fff;fill-rule:nonzero;"/><path d="M60.682,31.635l2.125,-0c0.361,-0 0.654,-0.293 0.654,-0.654c-0,-0.361 -0.293,-0.654 -0.654,-0.654l-2.125,-0c-0.361,-0 -0.654,0.293 -0.654,0.654c-0,0.361 0.293,0.654 0.654,0.654Z" style="fill:#fff;fill-rule:nonzero;"/><path d="M52.391,47.783c-0,0.993 0.806,1.799 1.799,1.799c0.994,0 1.8,-0.806 1.8,-1.799c0,-0.994 -0.806,-1.8 -1.8,-1.8c-0.993,0 -1.799,0.806 -1.799,1.8Z" style="fill:#fff;fill-rule:nonzero;"/><path d="M43.928,47.783c-0,0.993 0.806,1.799 1.8,1.799c0.993,0 1.799,-0.806 1.799,-1.799c-0,-0.994 -0.806,-1.8 -1.799,-1.8c-0.994,0 -1.8,0.806 -1.8,1.8Z" style="fill:#fff;fill-rule:nonzero;"/><path d="M53.351,47.783c-0,0.463 0.376,0.839 0.839,0.839c0.464,-0 0.84,-0.376 0.84,-0.839c-0,-0.464 -0.376,-0.84 -0.84,-0.84c-0.463,-0 -0.839,0.376 -0.839,0.84Z" style="fill:#4495ca;fill-rule:nonzero;"/><path d="M44.801,47.783c-0,0.463 0.376,0.839 0.84,0.839c0.463,-0 0.839,-0.376 0.839,-0.839c-0,-0.464 -0.376,-0.84 -0.839,-0.84c-0.464,-0 -0.84,0.376 -0.84,0.84Z" style="fill:#4495ca;fill-rule:nonzero;"/><path d="M53.057,42.439c0.187,-0 0.353,-0.134 0.386,-0.325l1.396,-8.027c0.037,-0.213 -0.106,-0.417 -0.32,-0.454c-0.213,-0.037 -0.417,0.106 -0.454,0.32l-1.396,8.026c-0.037,0.214 0.106,0.417 0.32,0.454l0.068,0.006Z" style="fill:#fff;fill-rule:nonzero;"/><path d="M51.094,42.264c0.205,0 0.377,-0.159 0.391,-0.366l0.523,-7.939c0.015,-0.217 -0.149,-0.404 -0.365,-0.418c-0.217,-0.015 -0.404,0.15 -0.418,0.366l-0.523,7.939c-0.015,0.216 0.149,0.403 0.365,0.418l0.027,0Z" style="fill:#fff;fill-rule:nonzero;"/><path d="M46.992,42.439l0.062,-0.005c0.214,-0.034 0.36,-0.234 0.327,-0.449l-1.265,-8.026c-0.034,-0.214 -0.235,-0.36 -0.449,-0.327c-0.214,0.034 -0.361,0.235 -0.327,0.449l1.265,8.026c0.03,0.194 0.197,0.332 0.387,0.332Z" style="fill:#fff;fill-rule:nonzero;"/><path d="M49.086,42.264l0.02,0c0.217,-0.011 0.383,-0.195 0.373,-0.412l-0.393,-7.939c-0.011,-0.216 -0.198,-0.384 -0.411,-0.372c-0.217,0.01 -0.384,0.195 -0.373,0.411l0.393,7.939c0.01,0.21 0.183,0.373 0.391,0.373Z" style="fill:#fff;fill-rule:nonzero;"/><path d="M44.027,36.855l12.563,-0c0.217,-0 0.392,-0.175 0.392,-0.392c-0,-0.217 -0.175,-0.393 -0.392,-0.393l-12.563,0c-0.217,0 -0.393,0.176 -0.393,0.393c0,0.217 0.176,0.392 0.393,0.392Z" style="fill:#fff;fill-rule:nonzero;"/><path d="M44.463,39.647l11.08,0c0.217,0 0.392,-0.176 0.392,-0.392c-0,-0.217 -0.175,-0.393 -0.392,-0.393l-11.08,-0c-0.217,-0 -0.393,0.176 -0.393,0.393c-0,0.216 0.176,0.392 0.393,0.392Z" style="fill:#fff;fill-rule:nonzero;"/><path d="M93.986,70.505l-88.91,0c-2.803,0 -5.076,-2.272 -5.076,-5.076l-0,-2.307l99.062,-0l-0,2.307c-0,2.804 -2.273,5.076 -5.076,5.076Z" style="fill:#092b3d;fill-rule:nonzero;"/><path d="M32.431,54.873c-0,0.489 -0.396,0.885 -0.884,0.885l-10.024,-0c-0.489,-0 -0.885,-0.396 -0.885,-0.885c0,-0.488 0.396,-0.884 0.885,-0.884l10.024,-0c0.488,-0 0.884,0.396 0.884,0.884Z" style="fill:#10436a;fill-rule:nonzero;"/><path d="M79.898,54.873c-0,0.489 -0.396,0.885 -0.884,0.885l-10.024,-0c-0.489,-0 -0.885,-0.396 -0.885,-0.885c-0,-0.488 0.396,-0.884 0.885,-0.884l10.024,-0c0.488,-0 0.884,0.396 0.884,0.884Z" style="fill:#10436a;fill-rule:nonzero;"/><path d="M37.885,61.795l3.295,-3.05l17.09,-0l2.907,3.05l-23.292,-0Z" style="fill:#4495ca;fill-rule:nonzero;"/></svg>