<?xml version="1.0" encoding="UTF-8" standalone="no"?><!DOCTYPE svg PUBLIC "-//W3C//DTD SVG 1.1//EN" "http://www.w3.org/Graphics/SVG/1.1/DTD/svg11.dtd"><svg width="100%" height="100%" viewBox="0 0 153 217" version="1.1" xmlns="http://www.w3.org/2000/svg" xmlns:xlink="http://www.w3.org/1999/xlink" xml:space="preserve" xmlns:serif="http://www.serif.com/" style="fill-rule:evenodd;clip-rule:evenodd;stroke-linejoin:round;stroke-miterlimit:2;"><path d="M136.364,192.752l-118.682,0c-4.531,0 -8.204,-3.406 -8.204,-7.609l0,-155.92c0,-4.202 3.673,-7.609 8.204,-7.609l118.682,0c4.53,0 8.203,3.407 8.203,7.609l0,155.92c0,4.203 -3.673,7.609 -8.203,7.609Z" style="fill:#527275;fill-rule:nonzero;"/><path d="M133.562,183.838l-113.078,0c-1.193,0 -2.159,-0.896 -2.159,-2.002l-0,-144.719c-0,-1.106 0.966,-2.002 2.159,-2.002l113.078,-0c1.192,-0 2.158,0.896 2.158,2.002l0,144.719c0,1.106 -0.966,2.002 -2.158,2.002Z" style="fill:#fff;fill-rule:nonzero;"/><path d="M14.56,192.182c-2.184,-0.779 -4.586,-2.631 -5.082,-6.181l0.002,-0.686c0.074,3.103 2.151,5.748 5.08,6.867Z" style="fill:url(#_Radial1);"/><path d="M16.995,192.641c-0.676,-0 -1.537,-0.139 -2.435,-0.459c-2.929,-1.119 -5.006,-3.764 -5.08,-6.867l0.465,-155.846l8.38,10.666l-0,141.701c-0,1.106 0.966,2.002 2.159,2.002l110.76,0l6.784,8.633l-120.346,0.111c-0.197,0.039 -0.428,0.059 -0.687,0.059Z" style="fill:#4f6e70;fill-rule:nonzero;"/><path d="M131.244,183.838l-110.76,0c-1.193,0 -2.159,-0.896 -2.159,-2.002l-0,-141.701l15.726,20.013l-8.696,-0l-0,25.554l27.55,-0l0,-1.56l78.339,99.696Zm-105.889,-46.515l-0,25.554l27.55,0l0,-18.481l9.819,-7.645l-3.384,-0.853l-6.435,4.389l0,-2.964l-27.55,0Zm-0,-38.588l-0,25.554l27.55,0l0,-15.444l9.819,-7.646l-3.384,-0.852l-6.435,4.389l0,-6.001l-27.55,0Zm26.562,63.226l-25.575,0l0,-23.721l25.575,-0l0,2.721l-12.228,8.341l-5.286,-4.978l-5.053,3.135l10.122,7.397l12.445,-9.69l0,16.795Zm0,-38.588l-25.575,-0l0,-23.721l25.575,-0l0,5.758l-12.228,8.34l-5.286,-4.978l-5.053,3.135l10.122,7.397l12.445,-9.69l0,13.759Zm0,-38.588l-25.575,0l0,-23.721l8.429,-0l5.8,7.381l-2.89,1.97l-5.286,-4.978l-5.052,3.136l10.121,7.396l5.596,-4.357l8.857,11.273l0,1.9Z" style="fill:#f5f5f5;fill-rule:nonzero;"/><path d="M76.345,216.385c-42.164,0 -76.345,-3.381 -76.345,-7.552c0,-4.172 34.181,-7.553 76.345,-7.553c42.165,-0 76.345,3.381 76.345,7.553c0,4.171 -34.18,7.552 -76.345,7.552Z" style="fill:#899daa;fill-rule:nonzero;"/><path d="M26.342,84.785l25.575,0l0,-23.721l-25.575,-0l0,23.721Zm26.563,0.917l-27.55,-0l-0,-25.554l27.55,-0l0,25.554Z" style="fill:#153e49;fill-rule:nonzero;"/><path d="M26.342,123.373l25.575,-0l0,-23.721l-25.575,-0l0,23.721Zm26.563,0.916l-27.55,0l-0,-25.554l27.55,0l0,25.554Z" style="fill:#153e49;fill-rule:nonzero;"/><path d="M26.342,161.961l25.575,0l0,-23.721l-25.575,-0l0,23.721Zm26.563,0.916l-27.55,0l-0,-25.554l27.55,0l0,25.554Z" style="fill:#153e49;fill-rule:nonzero;"/><rect x="67.563" y="62.248" width="56.748" height="2.621" style="fill:#e6e6e6;fill-rule:nonzero;"/><rect x="67.563" y="70.304" width="56.748" height="2.621" style="fill:#e6e6e6;fill-rule:nonzero;"/><rect x="67.563" y="78.359" width="56.748" height="2.621" style="fill:#e6e6e6;fill-rule:nonzero;"/><rect x="67.563" y="101.689" width="56.748" height="2.621" style="fill:#e6e6e6;fill-rule:nonzero;"/><rect x="67.563" y="109.745" width="56.748" height="2.621" style="fill:#e6e6e6;fill-rule:nonzero;"/><rect x="67.563" y="117.8" width="56.748" height="2.621" style="fill:#e6e6e6;fill-rule:nonzero;"/><rect x="67.563" y="138.745" width="56.748" height="2.621" style="fill:#e6e6e6;fill-rule:nonzero;"/><rect x="67.563" y="146.8" width="56.748" height="2.621" style="fill:#e6e6e6;fill-rule:nonzero;"/><rect x="67.563" y="154.856" width="56.748" height="2.621" style="fill:#e6e6e6;fill-rule:nonzero;"/><path d="M43.06,71.612l-2.489,-3.167l10.821,-7.381l0.525,-0l0,3.652l-8.857,6.896Zm9.845,-7.665l0,-3.799l-0.17,-0l4.598,-3.136l3.384,0.852l-7.812,6.083Z" style="fill:#c7c7c7;fill-rule:nonzero;"/><path d="M37.464,75.969l-10.121,-7.396l5.052,-3.136l5.286,4.978l2.89,-1.97l2.489,3.167l-5.596,4.357Z" style="fill:#bfbfbf;fill-rule:nonzero;"/><path d="M51.917,64.716l0,-3.652l-0.525,-0l1.343,-0.916l0.17,-0l0,3.799l-0.988,0.769Z" style="fill:#103039;fill-rule:nonzero;"/><path d="M28.371,67.393l3.557,-2.207l5.308,4.999l19.903,-13.576l1.496,0.378l-21.547,16.777l-8.717,-6.371Z" style="fill:#8cad81;fill-rule:nonzero;"/><path d="M28.867,67.411l8.215,6.004l20.939,-16.303l-0.822,-0.207l-19.994,13.637l-5.315,-5.006l-3.023,1.875Zm8.227,6.701l-9.219,-6.737l4.091,-2.538l5.301,4.991l19.813,-13.514l2.17,0.547l-22.156,17.251Z" style="fill:#8cad81;fill-rule:nonzero;"/><path d="M39.472,119.304l-10.122,-7.397l5.053,-3.135l5.286,4.978l12.228,-8.34l0,4.204l-12.445,9.69Zm13.433,-10.459l0,-4.109l6.435,-4.389l3.384,0.852l-9.819,7.646Z" style="fill:#bfbfbf;fill-rule:nonzero;"/><path d="M51.917,109.614l0,-4.204l0.988,-0.674l0,4.109l-0.988,0.769Z" style="fill:#103039;fill-rule:nonzero;"/><path d="M30.379,110.728l3.556,-2.207l5.308,4.999l19.904,-13.576l1.496,0.378l-21.547,16.777l-8.717,-6.371Z" style="fill:#8cad81;fill-rule:nonzero;"/><path d="M30.875,110.746l8.215,6.004l20.938,-16.303l-0.822,-0.207l-19.993,13.637l-5.316,-5.006l-3.022,1.875Zm8.226,6.701l-9.218,-6.737l4.091,-2.538l5.3,4.991l19.814,-13.514l2.17,0.547l-22.157,17.251Z" style="fill:#8cad81;fill-rule:nonzero;"/><path d="M39.472,154.856l-10.122,-7.397l5.053,-3.135l5.286,4.978l12.228,-8.341l0,4.205l-12.445,9.69Zm13.433,-10.46l0,-4.109l6.435,-4.389l3.384,0.853l-9.819,7.645Z" style="fill:#bfbfbf;fill-rule:nonzero;"/><path d="M51.917,145.166l0,-4.205l0.988,-0.674l0,4.109l-0.988,0.77Z" style="fill:#103039;fill-rule:nonzero;"/><path d="M30.379,146.28l3.556,-2.207l5.308,4.999l19.904,-13.576l1.496,0.377l-21.547,16.777l-8.717,-6.37Z" style="fill:#8cad81;fill-rule:nonzero;"/><path d="M30.875,146.298l8.215,6.004l20.938,-16.304l-0.822,-0.207l-19.993,13.637l-5.316,-5.006l-3.022,1.876Zm8.226,6.701l-9.218,-6.737l4.091,-2.539l5.3,4.992l19.814,-13.514l2.17,0.547l-22.157,17.251Z" style="fill:#8cad81;fill-rule:nonzero;"/><path d="M78.218,15.617c-2.926,-0 -5.298,-2.2 -5.298,-4.915c0,-2.714 2.372,-4.914 5.298,-4.914c2.926,-0 5.299,2.2 5.299,4.914c-0,2.715 -2.373,4.915 -5.299,4.915Zm36.09,1.747l-20.078,-0l0,-2.66c0,-8.121 -7.097,-14.704 -15.852,-14.704l-0.32,0c-8.755,0 -15.852,6.583 -15.852,14.704l0,2.66l-20.078,-0c-1.038,-0 -1.88,0.781 -1.88,1.744l0,18.79c0,0.963 0.842,1.744 1.88,1.744l72.18,0c1.039,0 1.88,-0.781 1.88,-1.744l-0,-18.79c-0,-0.963 -0.841,-1.744 -1.88,-1.744Z" style="fill:#f7d77f;fill-rule:nonzero;"/><rect x="40.248" y="33.641" width="75.94" height="2.949" style="fill:#e5c573;fill-rule:nonzero;"/><path d="M115.841,38.655l-75.172,-0c-0.233,-0 -0.421,-0.175 -0.421,-0.39l0,-0.907l75.94,0l-0,0.975c-0,0.178 -0.155,0.322 -0.347,0.322Z" style="fill:#e5c573;fill-rule:nonzero;"/><defs><radialGradient id="_Radial1" cx="0" cy="0" r="1" gradientUnits="userSpaceOnUse" gradientTransform="matrix(126.173,0,0,117.033,-5.38594,86.7552)"><stop offset="0" style="stop-color:#b1c0ca;stop-opacity:1"/><stop offset="1" style="stop-color:#96acb9;stop-opacity:1"/></radialGradient></defs></svg>